<?xml version="1.0"?>
<svg xmlns="http://www.w3.org/2000/svg" xmlns:xlink="http://www.w3.org/1999/xlink" xmlns:svgjs="http://svgjs.com/svgjs" version="1.1" width="512" height="512" x="0" y="0" viewBox="0 0 64 64" style="enable-background:new 0 0 512 512" xml:space="preserve" class=""><g><g xmlns="http://www.w3.org/2000/svg" id="Expand-Arrow-Arrows-Direction-Resize"><path d="M61,31V55a6,6,0,0,1-6,6H9a6,6,0,0,1-6-6V9A6,6,0,0,1,9,3H33a3,3,0,0,1,0,6H11a2.006,2.006,0,0,0-2,2V53a2.006,2.006,0,0,0,2,2H53a2.006,2.006,0,0,0,2-2V31a3,3,0,0,1,6,0Z" style="" fill="#ffffff" data-original="#ff9811" class=""/><path d="M58,28V54a4,4,0,0,1-4,4H10a4,4,0,0,1-4-4V10a4,4,0,0,1,4-4H36a3,3,0,0,1-3,3H11a2.006,2.006,0,0,0-2,2V53a2.006,2.006,0,0,0,2,2H53a2.006,2.006,0,0,0,2-2V31a3,3,0,0,1,3-3Z" style="" fill="#ffffff" data-original="#ee8700" class=""/><path d="M61,5V19a3,3,0,0,1-6,0V13.24L22.82,45.43a3.005,3.005,0,0,1-4.25-4.25L50.76,9H45a3,3,0,0,1,0-6H59A2.006,2.006,0,0,1,61,5Z" style="" fill="#ffffff" data-original="#ff9811" class=""/><path d="M61,5V19a3,3,0,0,1-6,0V13.24L22.82,45.43a3.006,3.006,0,0,1-4.25,0L60.41,3.59A1.955,1.955,0,0,1,61,5Z" style="" fill="#ffffff" data-original="#ee8700" class=""/><path d="M59,2H45a4,4,0,0,0,0,8h3.344L17.866,40.477a4,4,0,0,0,5.657,5.656L54,15.657V19a4,4,0,0,0,8,0V5A3,3,0,0,0,59,2Zm1,17a2,2,0,0,1-4,0V13.243a1,1,0,0,0-1.707-.707L22.109,44.719a2,2,0,0,1-2.829-2.828L51.465,9.707A1,1,0,0,0,50.758,8H45a2,2,0,0,1,0-4H59a1,1,0,0,1,1,1Z" fill="#000000" data-original="#000000" style="" class=""/><path d="M58,27a4,4,0,0,0-4,4V53a1,1,0,0,1-1,1H11a1,1,0,0,1-1-1V11a1,1,0,0,1,1-1H33a4,4,0,0,0,0-8H9A7.008,7.008,0,0,0,2,9V55a7.008,7.008,0,0,0,7,7H55a7.008,7.008,0,0,0,7-7V31A4,4,0,0,0,58,27Zm2,28a5.006,5.006,0,0,1-5,5H9a5.006,5.006,0,0,1-5-5V9A5.006,5.006,0,0,1,9,4H33a2,2,0,0,1,0,4H11a3,3,0,0,0-3,3V53a3,3,0,0,0,3,3H53a3,3,0,0,0,3-3V31a2,2,0,0,1,4,0Z" fill="#000000" data-original="#000000" style="" class=""/></g></g></svg>
